<svg  version="1.1" xmlns="http://www.w3.org/2000/svg" xmlns:xlink="http://www.w3.org/1999/xlink" viewBox="0 0 20.311 20.311" xml:space="preserve"><g id="SVGRepo_bgCarrier" stroke-width="0"></g><g id="SVGRepo_tracerCarrier" stroke-linecap="round" stroke-linejoin="round"></g><g id="SVGRepo_iconCarrier"> <g> <path d="M17.815,16.47c0-0.003,0-0.007,0-0.01V4.879L8.438,0v10.523C7.15,9.499,5.18,9.6,3.8,10.842 c-1.521,1.37-1.745,3.604-0.499,4.989c1.247,1.385,3.492,1.398,5.012,0.028c0.859-0.771,1.303-1.817,1.306-2.831V4.372l6.977,3.28 v6.273c-1.286-0.991-3.232-0.879-4.6,0.35c-1.523,1.37-1.744,3.603-0.498,4.987c1.246,1.387,3.491,1.399,5.014,0.03 c0.851-0.768,1.297-1.809,1.303-2.818l0,0V16.47z"></path> <g> </g> <g> </g> <g> </g> <g> </g> <g> </g> <g> </g> <g> </g> <g> </g> <g> </g> <g> </g> <g> </g> <g> </g> <g> </g> <g> </g> <g> </g> </g> </g></svg>